<svg width="184" height="53" viewBox="0 0 184 53" fill="none" xmlns="http://www.w3.org/2000/svg">
<rect width="184" height="53" rx="4" fill="black"/>
<path d="M60.822 12.939C61.81 12.939 62.6637 13.1253 63.383 13.498C64.111 13.862 64.6657 14.3863 65.047 15.071C65.437 15.7557 65.632 16.5617 65.632 17.489C65.632 18.4163 65.437 19.2223 65.047 19.907C64.6657 20.583 64.111 21.103 63.383 21.467C62.6637 21.8223 61.81 22 60.822 22H58.001V12.939H60.822ZM60.822 21.025C61.992 21.025 62.8847 20.7173 63.5 20.102C64.1153 19.478 64.423 18.607 64.423 17.489C64.423 16.3623 64.111 15.4827 63.487 14.85C62.8717 14.2173 61.9833 13.901 60.822 13.901H59.184V21.025H60.822ZM70.2994 22.117C69.6321 22.117 69.0254 21.9653 68.4794 21.662C67.9421 21.3587 67.5174 20.9297 67.2054 20.375C66.9021 19.8117 66.7504 19.1617 66.7504 18.425C66.7504 17.697 66.9064 17.0557 67.2184 16.501C67.5391 15.9377 67.9724 15.5087 68.5184 15.214C69.0644 14.9107 69.6754 14.759 70.3514 14.759C71.0274 14.759 71.6384 14.9107 72.1844 15.214C72.7304 15.5087 73.1594 15.9333 73.4714 16.488C73.7921 17.0427 73.9524 17.6883 73.9524 18.425C73.9524 19.1617 73.7877 19.8117 73.4584 20.375C73.1377 20.9297 72.7001 21.3587 72.1454 21.662C71.5907 21.9653 70.9754 22.117 70.2994 22.117ZM70.2994 21.077C70.7241 21.077 71.1227 20.9773 71.4954 20.778C71.8681 20.5787 72.1671 20.2797 72.3924 19.881C72.6264 19.4823 72.7434 18.997 72.7434 18.425C72.7434 17.853 72.6307 17.3677 72.4054 16.969C72.1801 16.5703 71.8854 16.2757 71.5214 16.085C71.1574 15.8857 70.7631 15.786 70.3384 15.786C69.9051 15.786 69.5064 15.8857 69.1424 16.085C68.7871 16.2757 68.5011 16.5703 68.2844 16.969C68.0677 17.3677 67.9594 17.853 67.9594 18.425C67.9594 19.0057 68.0634 19.4953 68.2714 19.894C68.4881 20.2927 68.7741 20.5917 69.1294 20.791C69.4847 20.9817 69.8747 21.077 70.2994 21.077ZM84.9978 14.876L82.7748 22H81.5528L79.8368 16.345L78.1208 22H76.8988L74.6628 14.876H75.8718L77.5098 20.856L79.2778 14.876H80.4868L82.2158 20.869L83.8278 14.876H84.9978ZM89.6429 14.746C90.5096 14.746 91.2116 15.0103 91.7489 15.539C92.2862 16.059 92.5549 16.813 92.5549 17.801V22H91.3849V17.97C91.3849 17.2593 91.2072 16.7177 90.8519 16.345C90.4966 15.9637 90.0112 15.773 89.3959 15.773C88.7719 15.773 88.2736 15.968 87.9009 16.358C87.5369 16.748 87.3549 17.3157 87.3549 18.061V22H86.1719V14.876H87.3549V15.89C87.5889 15.526 87.9052 15.2443 88.3039 15.045C88.7112 14.8457 89.1576 14.746 89.6429 14.746ZM95.6703 12.38V22H94.4873V12.38H95.6703ZM100.794 22.117C100.126 22.117 99.5195 21.9653 98.9735 21.662C98.4362 21.3587 98.0115 20.9297 97.6995 20.375C97.3962 19.8117 97.2445 19.1617 97.2445 18.425C97.2445 17.697 97.4005 17.0557 97.7125 16.501C98.0332 15.9377 98.4665 15.5087 99.0125 15.214C99.5585 14.9107 100.17 14.759 100.846 14.759C101.522 14.759 102.133 14.9107 102.679 15.214C103.225 15.5087 103.654 15.9333 103.966 16.488C104.286 17.0427 104.447 17.6883 104.447 18.425C104.447 19.1617 104.282 19.8117 103.953 20.375C103.632 20.9297 103.194 21.3587 102.64 21.662C102.085 21.9653 101.47 22.117 100.794 22.117ZM100.794 21.077C101.218 21.077 101.617 20.9773 101.99 20.778C102.362 20.5787 102.661 20.2797 102.887 19.881C103.121 19.4823 103.238 18.997 103.238 18.425C103.238 17.853 103.125 17.3677 102.9 16.969C102.674 16.5703 102.38 16.2757 102.016 16.085C101.652 15.8857 101.257 15.786 100.833 15.786C100.399 15.786 100.001 15.8857 99.6365 16.085C99.2812 16.2757 98.9952 16.5703 98.7785 16.969C98.5619 17.3677 98.4535 17.853 98.4535 18.425C98.4535 19.0057 98.5575 19.4953 98.7655 19.894C98.9822 20.2927 99.2682 20.5917 99.6235 20.791C99.9789 20.9817 100.369 21.077 100.794 21.077ZM105.56 18.412C105.56 17.684 105.707 17.047 106.002 16.501C106.297 15.9463 106.7 15.5173 107.211 15.214C107.731 14.9107 108.307 14.759 108.94 14.759C109.564 14.759 110.106 14.8933 110.565 15.162C111.024 15.4307 111.367 15.7687 111.592 16.176V14.876H112.788V22H111.592V20.674C111.358 21.09 111.007 21.4367 110.539 21.714C110.08 21.9827 109.542 22.117 108.927 22.117C108.294 22.117 107.722 21.961 107.211 21.649C106.7 21.337 106.297 20.8993 106.002 20.336C105.707 19.7727 105.56 19.1313 105.56 18.412ZM111.592 18.425C111.592 17.8877 111.484 17.4197 111.267 17.021C111.05 16.6223 110.756 16.319 110.383 16.111C110.019 15.8943 109.616 15.786 109.174 15.786C108.732 15.786 108.329 15.89 107.965 16.098C107.601 16.306 107.311 16.6093 107.094 17.008C106.877 17.4067 106.769 17.8747 106.769 18.412C106.769 18.958 106.877 19.4347 107.094 19.842C107.311 20.2407 107.601 20.5483 107.965 20.765C108.329 20.973 108.732 21.077 109.174 21.077C109.616 21.077 110.019 20.973 110.383 20.765C110.756 20.5483 111.05 20.2407 111.267 19.842C111.484 19.4347 111.592 18.9623 111.592 18.425ZM114.345 18.412C114.345 17.684 114.492 17.047 114.787 16.501C115.082 15.9463 115.485 15.5173 115.996 15.214C116.516 14.9107 117.097 14.759 117.738 14.759C118.293 14.759 118.808 14.889 119.285 15.149C119.762 15.4003 120.126 15.734 120.377 16.15V12.38H121.573V22H120.377V20.661C120.143 21.0857 119.796 21.4367 119.337 21.714C118.878 21.9827 118.34 22.117 117.725 22.117C117.092 22.117 116.516 21.961 115.996 21.649C115.485 21.337 115.082 20.8993 114.787 20.336C114.492 19.7727 114.345 19.1313 114.345 18.412ZM120.377 18.425C120.377 17.8877 120.269 17.4197 120.052 17.021C119.835 16.6223 119.541 16.319 119.168 16.111C118.804 15.8943 118.401 15.786 117.959 15.786C117.517 15.786 117.114 15.89 116.75 16.098C116.386 16.306 116.096 16.6093 115.879 17.008C115.662 17.4067 115.554 17.8747 115.554 18.412C115.554 18.958 115.662 19.4347 115.879 19.842C116.096 20.2407 116.386 20.5483 116.75 20.765C117.114 20.973 117.517 21.077 117.959 21.077C118.401 21.077 118.804 20.973 119.168 20.765C119.541 20.5483 119.835 20.2407 120.052 19.842C120.269 19.4347 120.377 18.9623 120.377 18.425ZM130.145 22.117C129.478 22.117 128.871 21.9653 128.325 21.662C127.788 21.3587 127.363 20.9297 127.051 20.375C126.748 19.8117 126.596 19.1617 126.596 18.425C126.596 17.697 126.752 17.0557 127.064 16.501C127.385 15.9377 127.818 15.5087 128.364 15.214C128.91 14.9107 129.521 14.759 130.197 14.759C130.873 14.759 131.484 14.9107 132.03 15.214C132.576 15.5087 133.005 15.9333 133.317 16.488C133.638 17.0427 133.798 17.6883 133.798 18.425C133.798 19.1617 133.633 19.8117 133.304 20.375C132.983 20.9297 132.546 21.3587 131.991 21.662C131.436 21.9653 130.821 22.117 130.145 22.117ZM130.145 21.077C130.57 21.077 130.968 20.9773 131.341 20.778C131.714 20.5787 132.013 20.2797 132.238 19.881C132.472 19.4823 132.589 18.997 132.589 18.425C132.589 17.853 132.476 17.3677 132.251 16.969C132.026 16.5703 131.731 16.2757 131.367 16.085C131.003 15.8857 130.609 15.786 130.184 15.786C129.751 15.786 129.352 15.8857 128.988 16.085C128.633 16.2757 128.347 16.5703 128.13 16.969C127.913 17.3677 127.805 17.853 127.805 18.425C127.805 19.0057 127.909 19.4953 128.117 19.894C128.334 20.2927 128.62 20.5917 128.975 20.791C129.33 20.9817 129.72 21.077 130.145 21.077ZM138.825 14.746C139.691 14.746 140.393 15.0103 140.931 15.539C141.468 16.059 141.737 16.813 141.737 17.801V22H140.567V17.97C140.567 17.2593 140.389 16.7177 140.034 16.345C139.678 15.9637 139.193 15.773 138.578 15.773C137.954 15.773 137.455 15.968 137.083 16.358C136.719 16.748 136.537 17.3157 136.537 18.061V22H135.354V14.876H136.537V15.89C136.771 15.526 137.087 15.2443 137.486 15.045C137.893 14.8457 138.339 14.746 138.825 14.746ZM148.578 15.851V20.05C148.578 20.3967 148.651 20.6437 148.799 20.791C148.946 20.9297 149.202 20.999 149.566 20.999H150.437V22H149.371C148.712 22 148.218 21.8483 147.889 21.545C147.559 21.2417 147.395 20.7433 147.395 20.05V15.851H146.472V14.876H147.395V13.082H148.578V14.876H150.437V15.851H148.578ZM155.406 14.746C155.943 14.746 156.429 14.863 156.862 15.097C157.295 15.3223 157.633 15.6647 157.876 16.124C158.127 16.5833 158.253 17.1423 158.253 17.801V22H157.083V17.97C157.083 17.2593 156.905 16.7177 156.55 16.345C156.195 15.9637 155.709 15.773 155.094 15.773C154.47 15.773 153.972 15.968 153.599 16.358C153.235 16.748 153.053 17.3157 153.053 18.061V22H151.87V12.38H153.053V15.89C153.287 15.526 153.608 15.2443 154.015 15.045C154.431 14.8457 154.895 14.746 155.406 14.746ZM166.686 18.165C166.686 18.3903 166.673 18.6287 166.647 18.88H160.953C160.996 19.582 161.234 20.1323 161.668 20.531C162.11 20.921 162.643 21.116 163.267 21.116C163.778 21.116 164.203 20.999 164.541 20.765C164.887 20.5223 165.13 20.2017 165.269 19.803H166.543C166.352 20.4877 165.971 21.0467 165.399 21.48C164.827 21.9047 164.116 22.117 163.267 22.117C162.591 22.117 161.984 21.9653 161.447 21.662C160.918 21.3587 160.502 20.9297 160.199 20.375C159.895 19.8117 159.744 19.1617 159.744 18.425C159.744 17.6883 159.891 17.0427 160.186 16.488C160.48 15.9333 160.892 15.5087 161.421 15.214C161.958 14.9107 162.573 14.759 163.267 14.759C163.943 14.759 164.541 14.9063 165.061 15.201C165.581 15.4957 165.979 15.903 166.257 16.423C166.543 16.9343 166.686 17.515 166.686 18.165ZM165.464 17.918C165.464 17.4673 165.364 17.0817 165.165 16.761C164.965 16.4317 164.692 16.1847 164.346 16.02C164.008 15.8467 163.631 15.76 163.215 15.76C162.617 15.76 162.105 15.9507 161.681 16.332C161.265 16.7133 161.026 17.242 160.966 17.918H165.464Z" fill="white"/>
<path d="M64.802 37.21H59.33L58.322 40H56.594L61.13 27.526H63.02L67.538 40H65.81L64.802 37.21ZM64.334 35.878L62.066 29.542L59.798 35.878H64.334ZM71.1529 31.954C71.4769 31.39 71.9569 30.922 72.5929 30.55C73.2409 30.166 73.9909 29.974 74.8429 29.974C75.7189 29.974 76.5109 30.184 77.2189 30.604C77.9389 31.024 78.5029 31.618 78.9109 32.386C79.3189 33.142 79.5229 34.024 79.5229 35.032C79.5229 36.028 79.3189 36.916 78.9109 37.696C78.5029 38.476 77.9389 39.082 77.2189 39.514C76.5109 39.946 75.7189 40.162 74.8429 40.162C74.0029 40.162 73.2589 39.976 72.6109 39.604C71.9749 39.22 71.4889 38.746 71.1529 38.182V44.68H69.5149V30.136H71.1529V31.954ZM77.8489 35.032C77.8489 34.288 77.6989 33.64 77.3989 33.088C77.0989 32.536 76.6909 32.116 76.1749 31.828C75.6709 31.54 75.1129 31.396 74.5009 31.396C73.9009 31.396 73.3429 31.546 72.8269 31.846C72.3229 32.134 71.9149 32.56 71.6029 33.124C71.3029 33.676 71.1529 34.318 71.1529 35.05C71.1529 35.794 71.3029 36.448 71.6029 37.012C71.9149 37.564 72.3229 37.99 72.8269 38.29C73.3429 38.578 73.9009 38.722 74.5009 38.722C75.1129 38.722 75.6709 38.578 76.1749 38.29C76.6909 37.99 77.0989 37.564 77.3989 37.012C77.6989 36.448 77.8489 35.788 77.8489 35.032ZM83.317 31.954C83.641 31.39 84.121 30.922 84.757 30.55C85.405 30.166 86.155 29.974 87.007 29.974C87.883 29.974 88.675 30.184 89.383 30.604C90.103 31.024 90.667 31.618 91.075 32.386C91.483 33.142 91.687 34.024 91.687 35.032C91.687 36.028 91.483 36.916 91.075 37.696C90.667 38.476 90.103 39.082 89.383 39.514C88.675 39.946 87.883 40.162 87.007 40.162C86.167 40.162 85.423 39.976 84.775 39.604C84.139 39.22 83.653 38.746 83.317 38.182V44.68H81.679V30.136H83.317V31.954ZM90.013 35.032C90.013 34.288 89.863 33.64 89.563 33.088C89.263 32.536 88.855 32.116 88.339 31.828C87.835 31.54 87.277 31.396 86.665 31.396C86.065 31.396 85.507 31.546 84.991 31.846C84.487 32.134 84.079 32.56 83.767 33.124C83.467 33.676 83.317 34.318 83.317 35.05C83.317 35.794 83.467 36.448 83.767 37.012C84.079 37.564 84.487 37.99 84.991 38.29C85.507 38.578 86.065 38.722 86.665 38.722C87.277 38.722 87.835 38.578 88.339 38.29C88.855 37.99 89.263 37.564 89.563 37.012C89.863 36.448 90.013 35.788 90.013 35.032ZM102.62 40.126C101.792 40.126 101.048 39.982 100.388 39.694C99.7399 39.394 99.2299 38.986 98.8579 38.47C98.4859 37.942 98.2939 37.336 98.2819 36.652H100.028C100.088 37.24 100.328 37.738 100.748 38.146C101.18 38.542 101.804 38.74 102.62 38.74C103.4 38.74 104.012 38.548 104.456 38.164C104.912 37.768 105.14 37.264 105.14 36.652C105.14 36.172 105.008 35.782 104.744 35.482C104.48 35.182 104.15 34.954 103.754 34.798C103.358 34.642 102.824 34.474 102.152 34.294C101.324 34.078 100.658 33.862 100.154 33.646C99.6619 33.43 99.2359 33.094 98.8759 32.638C98.5279 32.17 98.3539 31.546 98.3539 30.766C98.3539 30.082 98.5279 29.476 98.8759 28.948C99.2239 28.42 99.7099 28.012 100.334 27.724C100.97 27.436 101.696 27.292 102.512 27.292C103.688 27.292 104.648 27.586 105.392 28.174C106.148 28.762 106.574 29.542 106.67 30.514H104.87C104.81 30.034 104.558 29.614 104.114 29.254C103.67 28.882 103.082 28.696 102.35 28.696C101.666 28.696 101.108 28.876 100.676 29.236C100.244 29.584 100.028 30.076 100.028 30.712C100.028 31.168 100.154 31.54 100.406 31.828C100.67 32.116 100.988 32.338 101.36 32.494C101.744 32.638 102.278 32.806 102.962 32.998C103.79 33.226 104.456 33.454 104.96 33.682C105.464 33.898 105.896 34.24 106.256 34.708C106.616 35.164 106.796 35.788 106.796 36.58C106.796 37.192 106.634 37.768 106.31 38.308C105.986 38.848 105.506 39.286 104.87 39.622C104.234 39.958 103.484 40.126 102.62 40.126ZM111.204 31.486V37.3C111.204 37.78 111.306 38.122 111.51 38.326C111.714 38.518 112.068 38.614 112.572 38.614H113.778V40H112.302C111.39 40 110.706 39.79 110.25 39.37C109.794 38.95 109.566 38.26 109.566 37.3V31.486H108.288V30.136H109.566V27.652H111.204V30.136H113.778V31.486H111.204ZM120.065 40.162C119.141 40.162 118.301 39.952 117.545 39.532C116.801 39.112 116.213 38.518 115.781 37.75C115.361 36.97 115.151 36.07 115.151 35.05C115.151 34.042 115.367 33.154 115.799 32.386C116.243 31.606 116.843 31.012 117.599 30.604C118.355 30.184 119.201 29.974 120.137 29.974C121.073 29.974 121.919 30.184 122.675 30.604C123.431 31.012 124.025 31.6 124.457 32.368C124.901 33.136 125.123 34.03 125.123 35.05C125.123 36.07 124.895 36.97 124.439 37.75C123.995 38.518 123.389 39.112 122.621 39.532C121.853 39.952 121.001 40.162 120.065 40.162ZM120.065 38.722C120.653 38.722 121.205 38.584 121.721 38.308C122.237 38.032 122.651 37.618 122.963 37.066C123.287 36.514 123.449 35.842 123.449 35.05C123.449 34.258 123.293 33.586 122.981 33.034C122.669 32.482 122.261 32.074 121.757 31.81C121.253 31.534 120.707 31.396 120.119 31.396C119.519 31.396 118.967 31.534 118.463 31.81C117.971 32.074 117.575 32.482 117.275 33.034C116.975 33.586 116.825 34.258 116.825 35.05C116.825 35.854 116.969 36.532 117.257 37.084C117.557 37.636 117.953 38.05 118.445 38.326C118.937 38.59 119.477 38.722 120.065 38.722ZM128.915 31.738C129.203 31.174 129.611 30.736 130.139 30.424C130.679 30.112 131.333 29.956 132.101 29.956V31.648H131.669C129.833 31.648 128.915 32.644 128.915 34.636V40H127.277V30.136H128.915V31.738ZM142.991 34.69C142.991 35.002 142.973 35.332 142.937 35.68H135.053C135.113 36.652 135.443 37.414 136.043 37.966C136.655 38.506 137.393 38.776 138.257 38.776C138.965 38.776 139.553 38.614 140.021 38.29C140.501 37.954 140.837 37.51 141.029 36.958H142.793C142.529 37.906 142.001 38.68 141.209 39.28C140.417 39.868 139.433 40.162 138.257 40.162C137.321 40.162 136.481 39.952 135.737 39.532C135.005 39.112 134.429 38.518 134.009 37.75C133.589 36.97 133.379 36.07 133.379 35.05C133.379 34.03 133.583 33.136 133.991 32.368C134.399 31.6 134.969 31.012 135.701 30.604C136.445 30.184 137.297 29.974 138.257 29.974C139.193 29.974 140.021 30.178 140.741 30.586C141.461 30.994 142.013 31.558 142.397 32.278C142.793 32.986 142.991 33.79 142.991 34.69ZM141.299 34.348C141.299 33.724 141.161 33.19 140.885 32.746C140.609 32.29 140.231 31.948 139.751 31.72C139.283 31.48 138.761 31.36 138.185 31.36C137.357 31.36 136.649 31.624 136.061 32.152C135.485 32.68 135.155 33.412 135.071 34.348H141.299ZM145.676 40.108C145.364 40.108 145.1 40 144.884 39.784C144.668 39.568 144.56 39.304 144.56 38.992C144.56 38.68 144.668 38.416 144.884 38.2C145.1 37.984 145.364 37.876 145.676 37.876C145.976 37.876 146.228 37.984 146.432 38.2C146.648 38.416 146.756 38.68 146.756 38.992C146.756 39.304 146.648 39.568 146.432 39.784C146.228 40 145.976 40.108 145.676 40.108Z" fill="white"/>
<path d="M36.4918 8.01752C36.4175 7.93439 33.7378 8.05033 31.4059 10.5813C29.0741 13.11 29.4328 16.0106 29.4853 16.085C29.5378 16.1593 32.8103 16.2753 34.8994 13.3331C36.9884 10.3909 36.5662 8.10283 36.4918 8.01752ZM43.7412 33.6833C43.6362 33.4733 38.6553 30.984 39.119 26.1977C39.5828 21.4093 42.7831 20.0968 42.8334 19.9546C42.8837 19.8125 41.5274 18.2265 40.0903 17.4237C39.0351 16.8577 37.8672 16.5334 36.6712 16.4743C36.435 16.4678 35.6147 16.2665 33.9281 16.7281C32.8169 17.0322 30.3122 18.0165 29.6231 18.0559C28.9319 18.0953 26.8756 16.914 24.6641 16.6012C23.2488 16.3278 21.7482 16.8878 20.6741 17.3187C19.6022 17.7475 17.5635 18.9681 16.1373 22.2121C14.711 25.454 15.457 30.5902 15.9907 32.1871C16.5245 33.7818 17.3579 36.3958 18.7754 38.3033C20.0354 40.4558 21.7066 41.9498 22.4044 42.4573C23.1022 42.9648 25.071 43.3017 26.436 42.6039C27.5341 41.9302 29.5159 41.543 30.2991 41.5714C31.08 41.5998 32.62 41.9083 34.1972 42.7505C35.4462 43.1814 36.6275 43.002 37.8109 42.5208C38.9943 42.0373 40.7071 40.2042 42.7065 36.4877C43.4656 34.7596 43.8112 33.8255 43.7412 33.6833Z" fill="white"/>
<path d="M36.4918 8.01752C36.4175 7.93439 33.7378 8.05033 31.4059 10.5813C29.0741 13.11 29.4328 16.0106 29.4853 16.085C29.5378 16.1593 32.8103 16.2753 34.8994 13.3331C36.9884 10.3909 36.5662 8.10283 36.4918 8.01752ZM43.7412 33.6833C43.6362 33.4733 38.6553 30.984 39.119 26.1977C39.5828 21.4093 42.7831 20.0968 42.8334 19.9546C42.8837 19.8125 41.5274 18.2265 40.0903 17.4237C39.0351 16.8577 37.8672 16.5334 36.6712 16.4743C36.435 16.4678 35.6147 16.2665 33.9281 16.7281C32.8169 17.0322 30.3122 18.0165 29.6231 18.0559C28.9319 18.0953 26.8756 16.914 24.6641 16.6012C23.2488 16.3278 21.7482 16.8878 20.6741 17.3187C19.6022 17.7475 17.5635 18.9681 16.1373 22.2121C14.711 25.454 15.457 30.5902 15.9907 32.1871C16.5245 33.7818 17.3579 36.3958 18.7754 38.3033C20.0354 40.4558 21.7066 41.9498 22.4044 42.4573C23.1022 42.9648 25.071 43.3017 26.436 42.6039C27.5341 41.9302 29.5159 41.543 30.2991 41.5714C31.08 41.5998 32.62 41.9083 34.1972 42.7505C35.4462 43.1814 36.6275 43.002 37.8109 42.5208C38.9943 42.0373 40.7071 40.2042 42.7065 36.4877C43.4656 34.7596 43.8112 33.8255 43.7412 33.6833Z" fill="white"/>
</svg>
