<svg width="20" height="14" viewBox="0 0 20 14" fill="none" xmlns="http://www.w3.org/2000/svg">
<path d="M16.6666 13.6666H3.33325C1.95492 13.6666 0.833252 12.545 0.833252 11.1666V2.83331C0.833252 1.45498 1.95492 0.333313 3.33325 0.333313H16.6666C18.0449 0.333313 19.1666 1.45498 19.1666 2.83331V11.1666C19.1666 12.545 18.0449 13.6666 16.6666 13.6666ZM3.33325 1.99998C2.87408 1.99998 2.49992 2.37415 2.49992 2.83331V11.1666C2.49992 11.6258 2.87408 12 3.33325 12H16.6666C17.1257 12 17.4999 11.6258 17.4999 11.1666V2.83331C17.4999 2.37415 17.1257 1.99998 16.6666 1.99998H3.33325ZM8.33325 9.49998H4.99992C4.7789 9.49998 4.56694 9.41218 4.41066 9.2559C4.25438 9.09962 4.16658 8.88766 4.16658 8.66665C4.16658 8.44563 4.25438 8.23367 4.41066 8.07739C4.56694 7.92111 4.7789 7.83331 4.99992 7.83331H8.33325C8.55426 7.83331 8.76623 7.92111 8.92251 8.07739C9.07879 8.23367 9.16658 8.44563 9.16658 8.66665C9.16658 8.88766 9.07879 9.09962 8.92251 9.2559C8.76623 9.41218 8.55426 9.49998 8.33325 9.49998ZM8.33325 6.16665H4.99992C4.7789 6.16665 4.56694 6.07885 4.41066 5.92257C4.25438 5.76629 4.16658 5.55433 4.16658 5.33331C4.16658 5.1123 4.25438 4.90034 4.41066 4.74406C4.56694 4.58778 4.7789 4.49998 4.99992 4.49998H8.33325C8.55426 4.49998 8.76623 4.58778 8.92251 4.74406C9.07879 4.90034 9.16658 5.1123 9.16658 5.33331C9.16658 5.55433 9.07879 5.76629 8.92251 5.92257C8.76623 6.07885 8.55426 6.16665 8.33325 6.16665Z" fill="white" fill-opacity="0.67"/>
</svg>
