<svg width="18" height="16" viewBox="0 0 18 16" fill="none" xmlns="http://www.w3.org/2000/svg">
<path fill-rule="evenodd" clip-rule="evenodd" d="M17.125 0.5H10.25L9.8125 0.6875L9 1.4875L8.1875 0.6875L7.75 0.5H0.875L0.25 1.125V13.625L0.875 14.25H7.4875L8.5625 15.3125H9.4375L10.5125 14.25H17.125L17.75 13.625V1.125L17.125 0.5ZM8.375 13.4L8.15 13.1875L7.75 13H1.5V1.75H7.4875L8.4125 2.675L8.375 13.4ZM16.5 13H10.25L9.8125 13.1875L9.6375 13.35V2.625L10.5125 1.75H16.5V13ZM6.5 4.25H2.75V5.5H6.5V4.25ZM6.5 9.25H2.75V10.5H6.5V9.25ZM2.75 6.75H6.5V8H2.75V6.75ZM15.25 4.25H11.5V5.5H15.25V4.25ZM11.5 6.75H15.25V8H11.5V6.75ZM11.5 9.25H15.25V10.5H11.5V9.25Z" fill="white" fill-opacity="0.72"/>
</svg>
