<svg width="7" height="9" viewBox="0 0 7 9" fill="none" xmlns="http://www.w3.org/2000/svg">
<path fill-rule="evenodd" clip-rule="evenodd" d="M3.49995 -1.31311C3.59111 -1.31311 3.67855 -1.27689 3.74301 -1.21243C3.80748 -1.14796 3.8437 -1.06053 3.8437 -0.96936L3.8437 7.13833L6.00657 4.97477C6.07112 4.91022 6.15866 4.87396 6.24995 4.87396C6.34123 4.87396 6.42877 4.91022 6.49332 4.97477C6.55787 5.03931 6.59413 5.12686 6.59413 5.21814C6.59413 5.30942 6.55787 5.39697 6.49332 5.46152L3.74332 8.21152C3.71139 8.24353 3.67346 8.26893 3.63169 8.28626C3.58993 8.30359 3.54516 8.31251 3.49995 8.31251C3.45473 8.31251 3.40996 8.30359 3.3682 8.28626C3.32644 8.26893 3.2885 8.24353 3.25657 8.21152L0.506571 5.46152C0.442024 5.39697 0.405762 5.30942 0.405762 5.21814C0.405762 5.12686 0.442024 5.03931 0.506571 4.97477C0.571118 4.91022 0.658663 4.87396 0.749946 4.87396C0.841229 4.87396 0.928774 4.91022 0.993321 4.97477L3.1562 7.13833L3.1562 -0.96936C3.1562 -1.06053 3.19241 -1.14796 3.25688 -1.21243C3.32134 -1.27689 3.40878 -1.31311 3.49995 -1.31311Z" fill="black" fill-opacity="0.63"/>
</svg>
