<svg width="18" height="18" viewBox="0 0 18 18" fill="none" xmlns="http://www.w3.org/2000/svg">
<path d="M9.00016 17.14C9.31513 17.1327 9.61738 17.0143 9.85346 16.8057C10.0895 16.5971 10.2442 16.3117 10.2902 16H7.66016C7.70739 16.3202 7.86932 16.6123 8.11581 16.822C8.3623 17.0317 8.67657 17.1447 9.00016 17.14Z" fill="black" fill-opacity="0.6"/>
<path d="M16.2549 13.915C15.7727 13.4852 15.3506 12.9924 14.9999 12.45C14.617 11.7013 14.3875 10.8836 14.3249 10.045V7.57501C14.3229 7.27499 14.2961 6.97564 14.2449 6.68001C13.8514 6.60134 13.4731 6.45951 13.1249 6.26001C13.2576 6.68744 13.3251 7.13245 13.3249 7.58001V10.05C13.3862 11.073 13.6676 12.0708 14.1499 12.975C14.4951 13.522 14.9047 14.0256 15.3699 14.475H2.5649C3.03011 14.0256 3.4397 13.522 3.7849 12.975C4.26721 12.0708 4.54862 11.073 4.6099 10.05V7.57501C4.60727 6.99636 4.71881 6.42286 4.93812 5.88737C5.15744 5.35188 5.48023 4.86491 5.88801 4.45434C6.29579 4.04378 6.78055 3.71768 7.31454 3.49472C7.84852 3.27176 8.42124 3.15632 8.9999 3.15501C9.84679 3.15569 10.6747 3.40614 11.3799 3.87501C11.3022 3.58951 11.2585 3.29579 11.2499 3.00001V2.68501C10.7278 2.42819 10.167 2.25926 9.5899 2.18501V1.55501C9.5899 1.37798 9.51958 1.2082 9.3944 1.08302C9.26922 0.957838 9.09943 0.887512 8.9224 0.887512C8.74537 0.887512 8.57559 0.957838 8.45041 1.08302C8.32523 1.2082 8.2549 1.37798 8.2549 1.55501V2.21001C6.96276 2.39229 5.78019 3.03588 4.92551 4.02198C4.07084 5.00807 3.60177 6.27008 3.6049 7.57501V10.045C3.54228 10.8836 3.31279 11.7013 2.9299 12.45C2.58534 12.9912 2.17 13.4839 1.6949 13.915C1.64157 13.9619 1.59882 14.0195 1.56951 14.0842C1.5402 14.1489 1.52499 14.219 1.5249 14.29V14.97C1.5249 15.1026 1.57758 15.2298 1.67135 15.3236C1.76512 15.4173 1.89229 15.47 2.0249 15.47H15.9249C16.0575 15.47 16.1847 15.4173 16.2785 15.3236C16.3722 15.2298 16.4249 15.1026 16.4249 14.97V14.29C16.4248 14.219 16.4096 14.1489 16.3803 14.0842C16.351 14.0195 16.3082 13.9619 16.2549 13.915V13.915Z" fill="black" fill-opacity="0.6"/>
<path d="M15 5.5C16.3807 5.5 17.5 4.38071 17.5 3C17.5 1.61929 16.3807 0.5 15 0.5C13.6193 0.5 12.5 1.61929 12.5 3C12.5 4.38071 13.6193 5.5 15 5.5Z" fill="#F63B00"/>
</svg>
