<svg width="7" height="9" viewBox="0 0 7 9" fill="none" xmlns="http://www.w3.org/2000/svg">
<path fill-rule="evenodd" clip-rule="evenodd" d="M3.50005 10.3131C3.40889 10.3131 3.32145 10.2769 3.25699 10.2124C3.19252 10.148 3.1563 10.0605 3.1563 9.96936L3.1563 1.86167L0.993429 4.02523C0.928882 4.08978 0.841337 4.12604 0.750054 4.12604C0.658771 4.12604 0.571226 4.08978 0.506679 4.02523C0.442132 3.96069 0.405869 3.87314 0.405869 3.78186C0.405869 3.69058 0.442132 3.60303 0.506679 3.53848L3.25668 0.788484C3.28861 0.756472 3.32654 0.731073 3.36831 0.713744C3.41007 0.696415 3.45484 0.687494 3.50005 0.687494C3.54527 0.687494 3.59004 0.696415 3.6318 0.713744C3.67356 0.731073 3.7115 0.756472 3.74343 0.788484L6.49343 3.53848C6.55798 3.60303 6.59424 3.69058 6.59424 3.78186C6.59424 3.87314 6.55798 3.96069 6.49343 4.02523C6.42888 4.08978 6.34134 4.12604 6.25005 4.12604C6.15877 4.12604 6.07123 4.08978 6.00668 4.02523L3.8438 1.86167L3.8438 9.96936C3.8438 10.0605 3.80759 10.148 3.74312 10.2124C3.67866 10.2769 3.59122 10.3131 3.50005 10.3131Z" fill="#3067E1"/>
</svg>
